<svg width="16" height="16" viewBox="0 0 16 16" fill="none" xmlns="http://www.w3.org/2000/svg">
<g clip-path="url(#clip0_1_1343)">
<path d="M8.00016 14.6666C6.57067 14.6666 5.54198 14.6659 4.73996 14.5881C3.94713 14.5112 3.43996 14.3636 3.03521 14.1092C2.57261 13.8186 2.18144 13.4274 1.89077 12.9649C1.63653 12.5601 1.48875 12.0529 1.41198 11.2601C1.3342 10.4581 1.3335 9.42941 1.3335 7.99992C1.3335 6.57042 1.3342 5.54174 1.41198 4.73972C1.48875 3.94689 1.63653 3.43972 1.89077 3.03497C2.18143 2.57236 2.5726 2.18119 3.03521 1.89052C3.43996 1.63628 3.94713 1.4885 4.73996 1.41174C5.54188 1.33396 6.57057 1.33325 8.00016 1.33325C9.42966 1.33325 10.4583 1.33396 11.2604 1.41174C12.0532 1.4885 12.5604 1.63628 12.9651 1.89052C13.4277 2.1812 13.8188 2.57237 14.1095 3.03497C14.3638 3.43972 14.5115 3.94689 14.5883 4.73972C14.6661 5.54174 14.6668 6.57042 14.6668 7.99992C14.6668 9.42941 14.6661 10.4581 14.5883 11.2601C14.5115 12.0529 14.3638 12.5601 14.1095 12.9649C13.8188 13.4274 13.4277 13.8186 12.9651 14.1092C12.5604 14.3636 12.0532 14.5112 11.2604 14.5881C10.4583 14.6659 9.42966 14.6666 8.00016 14.6666Z" fill="white" stroke="white" stroke-width="2"/>
<path d="M8.00016 11.3333C9.47292 11.3333 10.6668 10.1394 10.6668 8.66667C10.6668 7.19391 9.47292 6 8.00016 6C6.5274 6 5.3335 7.19391 5.3335 8.66667C5.3335 10.1394 6.5274 11.3333 8.00016 11.3333Z" fill="white" stroke="black" stroke-width="2"/>
<path d="M11.25 5.5C11.6642 5.5 12 5.16421 12 4.75C12 4.33579 11.6642 4 11.25 4C10.8358 4 10.5 4.33579 10.5 4.75C10.5 5.16421 10.8358 5.5 11.25 5.5Z" fill="black"/>
</g>
<defs>
<clipPath id="clip0_1_1343">
<rect width="16" height="16" fill="white"/>
</clipPath>
</defs>
</svg>
